<mxfile host="app.diagrams.net" agent="Mozilla/5.0 (X11; Linux x86_64) AppleWebKit/537.36 (KHTML, like Gecko) Chrome/127.0.0.0 Safari/537.36" version="24.7.7">
  <diagram id="C5RBs43oDa-KdzZeNtuy" name="Page-1">
    <mxGraphModel dx="1035" dy="635" grid="1" gridSize="10" guides="1" tooltips="1" connect="1" arrows="1" fold="1" page="1" pageScale="1" pageWidth="827" pageHeight="1169" math="0" shadow="0">
      <root>
        <mxCell id="WIyWlLk6GJQsqaUBKTNV-0" />
        <mxCell id="WIyWlLk6GJQsqaUBKTNV-1" parent="WIyWlLk6GJQsqaUBKTNV-0" />
        <mxCell id="QNVyYZ68Ig6UdcTOOayE-0" value="Empresa" style="swimlane;fontStyle=2;align=center;verticalAlign=top;childLayout=stackLayout;horizontal=1;startSize=26;horizontalStack=0;resizeParent=1;resizeLast=0;collapsible=1;marginBottom=0;rounded=0;shadow=0;strokeWidth=1;" vertex="1" parent="WIyWlLk6GJQsqaUBKTNV-1">
          <mxGeometry x="390" y="1106" width="170" height="194" as="geometry">
            <mxRectangle x="230" y="140" width="160" height="26" as="alternateBounds" />
          </mxGeometry>
        </mxCell>
        <mxCell id="QNVyYZ68Ig6UdcTOOayE-1" value="- codigo: Long" style="text;align=left;verticalAlign=top;spacingLeft=4;spacingRight=4;overflow=hidden;rotatable=0;points=[[0,0.5],[1,0.5]];portConstraint=eastwest;" vertex="1" parent="QNVyYZ68Ig6UdcTOOayE-0">
          <mxGeometry y="26" width="170" height="26" as="geometry" />
        </mxCell>
        <mxCell id="QNVyYZ68Ig6UdcTOOayE-2" value="- nomeFantasia: String" style="text;align=left;verticalAlign=top;spacingLeft=4;spacingRight=4;overflow=hidden;rotatable=0;points=[[0,0.5],[1,0.5]];portConstraint=eastwest;rounded=0;shadow=0;html=0;" vertex="1" parent="QNVyYZ68Ig6UdcTOOayE-0">
          <mxGeometry y="52" width="170" height="26" as="geometry" />
        </mxCell>
        <mxCell id="QNVyYZ68Ig6UdcTOOayE-3" value="- razaoSocial: String" style="text;align=left;verticalAlign=top;spacingLeft=4;spacingRight=4;overflow=hidden;rotatable=0;points=[[0,0.5],[1,0.5]];portConstraint=eastwest;rounded=0;shadow=0;html=0;" vertex="1" parent="QNVyYZ68Ig6UdcTOOayE-0">
          <mxGeometry y="78" width="170" height="26" as="geometry" />
        </mxCell>
        <mxCell id="QNVyYZ68Ig6UdcTOOayE-4" value="- cnpj: String" style="text;strokeColor=none;fillColor=none;align=left;verticalAlign=top;spacingLeft=4;spacingRight=4;overflow=hidden;rotatable=0;points=[[0,0.5],[1,0.5]];portConstraint=eastwest;whiteSpace=wrap;html=1;" vertex="1" parent="QNVyYZ68Ig6UdcTOOayE-0">
          <mxGeometry y="104" width="170" height="26" as="geometry" />
        </mxCell>
        <mxCell id="QNVyYZ68Ig6UdcTOOayE-5" value="" style="line;strokeWidth=1;fillColor=none;align=left;verticalAlign=middle;spacingTop=-1;spacingLeft=3;spacingRight=3;rotatable=0;labelPosition=right;points=[];portConstraint=eastwest;strokeColor=inherit;" vertex="1" parent="QNVyYZ68Ig6UdcTOOayE-0">
          <mxGeometry y="130" width="170" height="8" as="geometry" />
        </mxCell>
        <mxCell id="QNVyYZ68Ig6UdcTOOayE-6" value="&amp;lt;&amp;lt;FK&amp;gt;&amp;gt; - endereco_id: Long" style="text;strokeColor=none;fillColor=none;align=left;verticalAlign=top;spacingLeft=4;spacingRight=4;overflow=hidden;rotatable=0;points=[[0,0.5],[1,0.5]];portConstraint=eastwest;whiteSpace=wrap;html=1;" vertex="1" parent="QNVyYZ68Ig6UdcTOOayE-0">
          <mxGeometry y="138" width="170" height="26" as="geometry" />
        </mxCell>
        <mxCell id="QNVyYZ68Ig6UdcTOOayE-7" value="&amp;lt;&amp;lt;FK&amp;gt;&amp;gt; - contato_id: Long" style="text;strokeColor=none;fillColor=none;align=left;verticalAlign=top;spacingLeft=4;spacingRight=4;overflow=hidden;rotatable=0;points=[[0,0.5],[1,0.5]];portConstraint=eastwest;whiteSpace=wrap;html=1;" vertex="1" parent="QNVyYZ68Ig6UdcTOOayE-0">
          <mxGeometry y="164" width="170" height="26" as="geometry" />
        </mxCell>
        <mxCell id="QNVyYZ68Ig6UdcTOOayE-8" style="edgeStyle=orthogonalEdgeStyle;rounded=0;orthogonalLoop=1;jettySize=auto;html=1;entryX=0.5;entryY=0;entryDx=0;entryDy=0;" edge="1" parent="WIyWlLk6GJQsqaUBKTNV-1" source="QNVyYZ68Ig6UdcTOOayE-15" target="QNVyYZ68Ig6UdcTOOayE-46">
          <mxGeometry relative="1" as="geometry" />
        </mxCell>
        <mxCell id="QNVyYZ68Ig6UdcTOOayE-9" value="1..1" style="edgeLabel;html=1;align=center;verticalAlign=middle;resizable=0;points=[];" vertex="1" connectable="0" parent="QNVyYZ68Ig6UdcTOOayE-8">
          <mxGeometry x="-0.8806" relative="1" as="geometry">
            <mxPoint x="15" as="offset" />
          </mxGeometry>
        </mxCell>
        <mxCell id="QNVyYZ68Ig6UdcTOOayE-10" value="1..1" style="edgeLabel;html=1;align=center;verticalAlign=middle;resizable=0;points=[];" vertex="1" connectable="0" parent="QNVyYZ68Ig6UdcTOOayE-8">
          <mxGeometry x="0.8519" relative="1" as="geometry">
            <mxPoint as="offset" />
          </mxGeometry>
        </mxCell>
        <mxCell id="QNVyYZ68Ig6UdcTOOayE-11" style="edgeStyle=orthogonalEdgeStyle;rounded=0;orthogonalLoop=1;jettySize=auto;html=1;entryX=0;entryY=0.5;entryDx=0;entryDy=0;exitX=1;exitY=0.115;exitDx=0;exitDy=0;exitPerimeter=0;" edge="1" parent="WIyWlLk6GJQsqaUBKTNV-1" target="QNVyYZ68Ig6UdcTOOayE-68">
          <mxGeometry relative="1" as="geometry">
            <mxPoint x="980" y="1225.99" as="sourcePoint" />
          </mxGeometry>
        </mxCell>
        <mxCell id="QNVyYZ68Ig6UdcTOOayE-12" value="0..n" style="edgeLabel;html=1;align=center;verticalAlign=middle;resizable=0;points=[];" vertex="1" connectable="0" parent="QNVyYZ68Ig6UdcTOOayE-11">
          <mxGeometry x="-0.9" relative="1" as="geometry">
            <mxPoint as="offset" />
          </mxGeometry>
        </mxCell>
        <mxCell id="QNVyYZ68Ig6UdcTOOayE-13" value="1..1" style="edgeLabel;html=1;align=center;verticalAlign=middle;resizable=0;points=[];" vertex="1" connectable="0" parent="QNVyYZ68Ig6UdcTOOayE-11">
          <mxGeometry x="0.8596" y="-2" relative="1" as="geometry">
            <mxPoint x="1" as="offset" />
          </mxGeometry>
        </mxCell>
        <mxCell id="QNVyYZ68Ig6UdcTOOayE-14" value="1..n" style="edgeLabel;html=1;align=center;verticalAlign=middle;resizable=0;points=[];" vertex="1" connectable="0" parent="QNVyYZ68Ig6UdcTOOayE-11">
          <mxGeometry x="0.8596" y="-4" relative="1" as="geometry">
            <mxPoint x="1" as="offset" />
          </mxGeometry>
        </mxCell>
        <mxCell id="QNVyYZ68Ig6UdcTOOayE-15" value="Usuario" style="swimlane;fontStyle=0;align=center;verticalAlign=top;childLayout=stackLayout;horizontal=1;startSize=26;horizontalStack=0;resizeParent=1;resizeLast=0;collapsible=1;marginBottom=0;rounded=0;shadow=0;strokeWidth=1;" vertex="1" parent="WIyWlLk6GJQsqaUBKTNV-1">
          <mxGeometry x="770" y="1067" width="210" height="250" as="geometry">
            <mxRectangle x="340" y="380" width="170" height="26" as="alternateBounds" />
          </mxGeometry>
        </mxCell>
        <mxCell id="QNVyYZ68Ig6UdcTOOayE-16" value="- codigo: Long" style="text;align=left;verticalAlign=top;spacingLeft=4;spacingRight=4;overflow=hidden;rotatable=0;points=[[0,0.5],[1,0.5]];portConstraint=eastwest;" vertex="1" parent="QNVyYZ68Ig6UdcTOOayE-15">
          <mxGeometry y="26" width="210" height="26" as="geometry" />
        </mxCell>
        <mxCell id="QNVyYZ68Ig6UdcTOOayE-17" value="- nome: String" style="text;strokeColor=none;fillColor=none;align=left;verticalAlign=top;spacingLeft=4;spacingRight=4;overflow=hidden;rotatable=0;points=[[0,0.5],[1,0.5]];portConstraint=eastwest;whiteSpace=wrap;html=1;" vertex="1" parent="QNVyYZ68Ig6UdcTOOayE-15">
          <mxGeometry y="52" width="210" height="26" as="geometry" />
        </mxCell>
        <mxCell id="QNVyYZ68Ig6UdcTOOayE-18" value="- senha: String" style="text;strokeColor=none;fillColor=none;align=left;verticalAlign=top;spacingLeft=4;spacingRight=4;overflow=hidden;rotatable=0;points=[[0,0.5],[1,0.5]];portConstraint=eastwest;whiteSpace=wrap;html=1;" vertex="1" parent="QNVyYZ68Ig6UdcTOOayE-15">
          <mxGeometry y="78" width="210" height="26" as="geometry" />
        </mxCell>
        <mxCell id="QNVyYZ68Ig6UdcTOOayE-19" value="" style="line;strokeWidth=1;fillColor=none;align=left;verticalAlign=middle;spacingTop=-1;spacingLeft=3;spacingRight=3;rotatable=0;labelPosition=right;points=[];portConstraint=eastwest;strokeColor=inherit;" vertex="1" parent="QNVyYZ68Ig6UdcTOOayE-15">
          <mxGeometry y="104" width="210" height="16" as="geometry" />
        </mxCell>
        <mxCell id="QNVyYZ68Ig6UdcTOOayE-20" value="&amp;lt;&amp;lt;FK&amp;gt;&amp;gt; - empresa_id: Long" style="text;strokeColor=none;fillColor=none;align=left;verticalAlign=top;spacingLeft=4;spacingRight=4;overflow=hidden;rotatable=0;points=[[0,0.5],[1,0.5]];portConstraint=eastwest;whiteSpace=wrap;html=1;" vertex="1" parent="QNVyYZ68Ig6UdcTOOayE-15">
          <mxGeometry y="120" width="210" height="26" as="geometry" />
        </mxCell>
        <mxCell id="QNVyYZ68Ig6UdcTOOayE-21" value="&amp;lt;&amp;lt;FK&amp;gt;&amp;gt; - contato_id: Long" style="text;strokeColor=none;fillColor=none;align=left;verticalAlign=top;spacingLeft=4;spacingRight=4;overflow=hidden;rotatable=0;points=[[0,0.5],[1,0.5]];portConstraint=eastwest;whiteSpace=wrap;html=1;" vertex="1" parent="QNVyYZ68Ig6UdcTOOayE-15">
          <mxGeometry y="146" width="210" height="26" as="geometry" />
        </mxCell>
        <mxCell id="QNVyYZ68Ig6UdcTOOayE-22" value="&amp;lt;&amp;lt;FK&amp;gt;&amp;gt; - endereco_id: Long" style="text;strokeColor=none;fillColor=none;align=left;verticalAlign=top;spacingLeft=4;spacingRight=4;overflow=hidden;rotatable=0;points=[[0,0.5],[1,0.5]];portConstraint=eastwest;whiteSpace=wrap;html=1;" vertex="1" parent="QNVyYZ68Ig6UdcTOOayE-15">
          <mxGeometry y="172" width="210" height="26" as="geometry" />
        </mxCell>
        <mxCell id="QNVyYZ68Ig6UdcTOOayE-23" value="Paciente" style="swimlane;fontStyle=0;align=center;verticalAlign=top;childLayout=stackLayout;horizontal=1;startSize=26;horizontalStack=0;resizeParent=1;resizeLast=0;collapsible=1;marginBottom=0;rounded=0;shadow=0;strokeWidth=1;" vertex="1" parent="WIyWlLk6GJQsqaUBKTNV-1">
          <mxGeometry x="400" y="640" width="197" height="230" as="geometry">
            <mxRectangle x="550" y="140" width="160" height="26" as="alternateBounds" />
          </mxGeometry>
        </mxCell>
        <mxCell id="QNVyYZ68Ig6UdcTOOayE-24" value="&lt;&lt;PK&gt;&gt; -id: Long   " style="text;align=left;verticalAlign=top;spacingLeft=4;spacingRight=4;overflow=hidden;rotatable=0;points=[[0,0.5],[1,0.5]];portConstraint=eastwest;" vertex="1" parent="QNVyYZ68Ig6UdcTOOayE-23">
          <mxGeometry y="26" width="197" height="26" as="geometry" />
        </mxCell>
        <mxCell id="QNVyYZ68Ig6UdcTOOayE-25" value="-nome: String" style="text;align=left;verticalAlign=top;spacingLeft=4;spacingRight=4;overflow=hidden;rotatable=0;points=[[0,0.5],[1,0.5]];portConstraint=eastwest;rounded=0;shadow=0;html=0;" vertex="1" parent="QNVyYZ68Ig6UdcTOOayE-23">
          <mxGeometry y="52" width="197" height="26" as="geometry" />
        </mxCell>
        <mxCell id="QNVyYZ68Ig6UdcTOOayE-26" value="-dataNascimento: LocalDate" style="text;align=left;verticalAlign=top;spacingLeft=4;spacingRight=4;overflow=hidden;rotatable=0;points=[[0,0.5],[1,0.5]];portConstraint=eastwest;rounded=0;shadow=0;html=0;" vertex="1" parent="QNVyYZ68Ig6UdcTOOayE-23">
          <mxGeometry y="78" width="197" height="26" as="geometry" />
        </mxCell>
        <mxCell id="QNVyYZ68Ig6UdcTOOayE-30" style="edgeStyle=orthogonalEdgeStyle;rounded=0;orthogonalLoop=1;jettySize=auto;html=1;entryX=0.465;entryY=-0.01;entryDx=0;entryDy=0;entryPerimeter=0;" edge="1" parent="QNVyYZ68Ig6UdcTOOayE-23" target="QNVyYZ68Ig6UdcTOOayE-0">
          <mxGeometry relative="1" as="geometry">
            <mxPoint x="-53" y="450" as="targetPoint" />
            <mxPoint y="195" as="sourcePoint" />
            <Array as="points">
              <mxPoint x="-80" y="195" />
              <mxPoint x="-80" y="331" />
              <mxPoint x="69" y="331" />
            </Array>
          </mxGeometry>
        </mxCell>
        <mxCell id="QNVyYZ68Ig6UdcTOOayE-31" value="1..1" style="edgeLabel;html=1;align=center;verticalAlign=middle;resizable=0;points=[];" vertex="1" connectable="0" parent="QNVyYZ68Ig6UdcTOOayE-30">
          <mxGeometry x="-0.9096" relative="1" as="geometry">
            <mxPoint as="offset" />
          </mxGeometry>
        </mxCell>
        <mxCell id="QNVyYZ68Ig6UdcTOOayE-32" value="1..1" style="edgeLabel;html=1;align=center;verticalAlign=middle;resizable=0;points=[];" vertex="1" connectable="0" parent="QNVyYZ68Ig6UdcTOOayE-30">
          <mxGeometry x="0.868" y="-1" relative="1" as="geometry">
            <mxPoint as="offset" />
          </mxGeometry>
        </mxCell>
        <mxCell id="QNVyYZ68Ig6UdcTOOayE-167" value="-cpf: String" style="text;align=left;verticalAlign=top;spacingLeft=4;spacingRight=4;overflow=hidden;rotatable=0;points=[[0,0.5],[1,0.5]];portConstraint=eastwest;rounded=0;shadow=0;html=0;" vertex="1" parent="QNVyYZ68Ig6UdcTOOayE-23">
          <mxGeometry y="104" width="197" height="26" as="geometry" />
        </mxCell>
        <mxCell id="QNVyYZ68Ig6UdcTOOayE-168" value="-numSus: String" style="text;align=left;verticalAlign=top;spacingLeft=4;spacingRight=4;overflow=hidden;rotatable=0;points=[[0,0.5],[1,0.5]];portConstraint=eastwest;rounded=0;shadow=0;html=0;" vertex="1" parent="QNVyYZ68Ig6UdcTOOayE-23">
          <mxGeometry y="130" width="197" height="26" as="geometry" />
        </mxCell>
        <mxCell id="QNVyYZ68Ig6UdcTOOayE-34" value="" style="line;strokeWidth=1;fillColor=none;align=left;verticalAlign=middle;spacingTop=-1;spacingLeft=3;spacingRight=3;rotatable=0;labelPosition=right;points=[];portConstraint=eastwest;strokeColor=inherit;" vertex="1" parent="QNVyYZ68Ig6UdcTOOayE-23">
          <mxGeometry y="156" width="197" height="8" as="geometry" />
        </mxCell>
        <mxCell id="QNVyYZ68Ig6UdcTOOayE-35" value="&amp;lt;&amp;lt;FK&amp;gt;&amp;gt; endereco_id: Long" style="text;strokeColor=none;fillColor=none;align=left;verticalAlign=top;spacingLeft=4;spacingRight=4;overflow=hidden;rotatable=0;points=[[0,0.5],[1,0.5]];portConstraint=eastwest;whiteSpace=wrap;html=1;" vertex="1" parent="QNVyYZ68Ig6UdcTOOayE-23">
          <mxGeometry y="164" width="197" height="26" as="geometry" />
        </mxCell>
        <mxCell id="QNVyYZ68Ig6UdcTOOayE-36" value="Cidade" style="swimlane;fontStyle=0;childLayout=stackLayout;horizontal=1;startSize=26;fillColor=none;horizontalStack=0;resizeParent=1;resizeParentMax=0;resizeLast=0;collapsible=1;marginBottom=0;whiteSpace=wrap;html=1;" vertex="1" parent="WIyWlLk6GJQsqaUBKTNV-1">
          <mxGeometry x="860" y="670" width="190" height="138" as="geometry" />
        </mxCell>
        <mxCell id="QNVyYZ68Ig6UdcTOOayE-37" value="&amp;lt;&amp;lt;PK&amp;gt;&amp;gt;- id: Long" style="text;strokeColor=none;fillColor=none;align=left;verticalAlign=top;spacingLeft=4;spacingRight=4;overflow=hidden;rotatable=0;points=[[0,0.5],[1,0.5]];portConstraint=eastwest;whiteSpace=wrap;html=1;" vertex="1" parent="QNVyYZ68Ig6UdcTOOayE-36">
          <mxGeometry y="26" width="190" height="26" as="geometry" />
        </mxCell>
        <mxCell id="QNVyYZ68Ig6UdcTOOayE-38" value="- nome: String" style="text;strokeColor=none;fillColor=none;align=left;verticalAlign=top;spacingLeft=4;spacingRight=4;overflow=hidden;rotatable=0;points=[[0,0.5],[1,0.5]];portConstraint=eastwest;whiteSpace=wrap;html=1;" vertex="1" parent="QNVyYZ68Ig6UdcTOOayE-36">
          <mxGeometry y="52" width="190" height="26" as="geometry" />
        </mxCell>
        <mxCell id="QNVyYZ68Ig6UdcTOOayE-39" value="- enderecos: Set&amp;lt;Endereco&amp;gt;" style="text;strokeColor=none;fillColor=none;align=left;verticalAlign=top;spacingLeft=4;spacingRight=4;overflow=hidden;rotatable=0;points=[[0,0.5],[1,0.5]];portConstraint=eastwest;whiteSpace=wrap;html=1;" vertex="1" parent="QNVyYZ68Ig6UdcTOOayE-36">
          <mxGeometry y="78" width="190" height="26" as="geometry" />
        </mxCell>
        <mxCell id="QNVyYZ68Ig6UdcTOOayE-40" value="" style="line;strokeWidth=1;fillColor=none;align=left;verticalAlign=middle;spacingTop=-1;spacingLeft=3;spacingRight=3;rotatable=0;labelPosition=right;points=[];portConstraint=eastwest;strokeColor=inherit;" vertex="1" parent="QNVyYZ68Ig6UdcTOOayE-36">
          <mxGeometry y="104" width="190" height="8" as="geometry" />
        </mxCell>
        <mxCell id="QNVyYZ68Ig6UdcTOOayE-41" value="&amp;lt;&amp;lt;FK&amp;gt;&amp;gt; - estado_id: Long" style="text;strokeColor=none;fillColor=none;align=left;verticalAlign=top;spacingLeft=4;spacingRight=4;overflow=hidden;rotatable=0;points=[[0,0.5],[1,0.5]];portConstraint=eastwest;whiteSpace=wrap;html=1;" vertex="1" parent="QNVyYZ68Ig6UdcTOOayE-36">
          <mxGeometry y="112" width="190" height="26" as="geometry" />
        </mxCell>
        <mxCell id="QNVyYZ68Ig6UdcTOOayE-42" value="Estado" style="swimlane;fontStyle=0;childLayout=stackLayout;horizontal=1;startSize=26;fillColor=none;horizontalStack=0;resizeParent=1;resizeParentMax=0;resizeLast=0;collapsible=1;marginBottom=0;whiteSpace=wrap;html=1;" vertex="1" parent="WIyWlLk6GJQsqaUBKTNV-1">
          <mxGeometry x="1215" y="670" width="140" height="104" as="geometry" />
        </mxCell>
        <mxCell id="QNVyYZ68Ig6UdcTOOayE-43" value="- id: Long" style="text;strokeColor=none;fillColor=none;align=left;verticalAlign=top;spacingLeft=4;spacingRight=4;overflow=hidden;rotatable=0;points=[[0,0.5],[1,0.5]];portConstraint=eastwest;whiteSpace=wrap;html=1;" vertex="1" parent="QNVyYZ68Ig6UdcTOOayE-42">
          <mxGeometry y="26" width="140" height="26" as="geometry" />
        </mxCell>
        <mxCell id="QNVyYZ68Ig6UdcTOOayE-44" value="- nome: String" style="text;strokeColor=none;fillColor=none;align=left;verticalAlign=top;spacingLeft=4;spacingRight=4;overflow=hidden;rotatable=0;points=[[0,0.5],[1,0.5]];portConstraint=eastwest;whiteSpace=wrap;html=1;" vertex="1" parent="QNVyYZ68Ig6UdcTOOayE-42">
          <mxGeometry y="52" width="140" height="26" as="geometry" />
        </mxCell>
        <mxCell id="QNVyYZ68Ig6UdcTOOayE-45" value="- sigla: String" style="text;strokeColor=none;fillColor=none;align=left;verticalAlign=top;spacingLeft=4;spacingRight=4;overflow=hidden;rotatable=0;points=[[0,0.5],[1,0.5]];portConstraint=eastwest;whiteSpace=wrap;html=1;" vertex="1" parent="QNVyYZ68Ig6UdcTOOayE-42">
          <mxGeometry y="78" width="140" height="26" as="geometry" />
        </mxCell>
        <mxCell id="QNVyYZ68Ig6UdcTOOayE-46" value="Contato" style="swimlane;fontStyle=0;childLayout=stackLayout;horizontal=1;startSize=26;fillColor=none;horizontalStack=0;resizeParent=1;resizeParentMax=0;resizeLast=0;collapsible=1;marginBottom=0;whiteSpace=wrap;html=1;" vertex="1" parent="WIyWlLk6GJQsqaUBKTNV-1">
          <mxGeometry x="690" y="1400" width="140" height="130" as="geometry" />
        </mxCell>
        <mxCell id="QNVyYZ68Ig6UdcTOOayE-47" value="- id: Long" style="text;strokeColor=none;fillColor=none;align=left;verticalAlign=top;spacingLeft=4;spacingRight=4;overflow=hidden;rotatable=0;points=[[0,0.5],[1,0.5]];portConstraint=eastwest;whiteSpace=wrap;html=1;" vertex="1" parent="QNVyYZ68Ig6UdcTOOayE-46">
          <mxGeometry y="26" width="140" height="26" as="geometry" />
        </mxCell>
        <mxCell id="QNVyYZ68Ig6UdcTOOayE-48" value="- telefone: String" style="text;strokeColor=none;fillColor=none;align=left;verticalAlign=top;spacingLeft=4;spacingRight=4;overflow=hidden;rotatable=0;points=[[0,0.5],[1,0.5]];portConstraint=eastwest;whiteSpace=wrap;html=1;" vertex="1" parent="QNVyYZ68Ig6UdcTOOayE-46">
          <mxGeometry y="52" width="140" height="26" as="geometry" />
        </mxCell>
        <mxCell id="QNVyYZ68Ig6UdcTOOayE-49" value="- whatsapp: String" style="text;strokeColor=none;fillColor=none;align=left;verticalAlign=top;spacingLeft=4;spacingRight=4;overflow=hidden;rotatable=0;points=[[0,0.5],[1,0.5]];portConstraint=eastwest;whiteSpace=wrap;html=1;" vertex="1" parent="QNVyYZ68Ig6UdcTOOayE-46">
          <mxGeometry y="78" width="140" height="26" as="geometry" />
        </mxCell>
        <mxCell id="QNVyYZ68Ig6UdcTOOayE-50" value="- email: String" style="text;strokeColor=none;fillColor=none;align=left;verticalAlign=top;spacingLeft=4;spacingRight=4;overflow=hidden;rotatable=0;points=[[0,0.5],[1,0.5]];portConstraint=eastwest;whiteSpace=wrap;html=1;" vertex="1" parent="QNVyYZ68Ig6UdcTOOayE-46">
          <mxGeometry y="104" width="140" height="26" as="geometry" />
        </mxCell>
        <mxCell id="QNVyYZ68Ig6UdcTOOayE-51" value="Mesa" style="swimlane;fontStyle=0;childLayout=stackLayout;horizontal=1;startSize=26;fillColor=none;horizontalStack=0;resizeParent=1;resizeParentMax=0;resizeLast=0;collapsible=1;marginBottom=0;whiteSpace=wrap;html=1;" vertex="1" parent="WIyWlLk6GJQsqaUBKTNV-1">
          <mxGeometry x="1480" y="1467" width="150" height="130" as="geometry" />
        </mxCell>
        <mxCell id="QNVyYZ68Ig6UdcTOOayE-52" value="- id: Long" style="text;strokeColor=none;fillColor=none;align=left;verticalAlign=top;spacingLeft=4;spacingRight=4;overflow=hidden;rotatable=0;points=[[0,0.5],[1,0.5]];portConstraint=eastwest;whiteSpace=wrap;html=1;" vertex="1" parent="QNVyYZ68Ig6UdcTOOayE-51">
          <mxGeometry y="26" width="150" height="26" as="geometry" />
        </mxCell>
        <mxCell id="QNVyYZ68Ig6UdcTOOayE-53" value="- numeroMesa: Integer" style="text;strokeColor=none;fillColor=none;align=left;verticalAlign=top;spacingLeft=4;spacingRight=4;overflow=hidden;rotatable=0;points=[[0,0.5],[1,0.5]];portConstraint=eastwest;whiteSpace=wrap;html=1;" vertex="1" parent="QNVyYZ68Ig6UdcTOOayE-51">
          <mxGeometry y="52" width="150" height="26" as="geometry" />
        </mxCell>
        <mxCell id="QNVyYZ68Ig6UdcTOOayE-54" value="- pedido: Pedido" style="text;strokeColor=none;fillColor=none;align=left;verticalAlign=top;spacingLeft=4;spacingRight=4;overflow=hidden;rotatable=0;points=[[0,0.5],[1,0.5]];portConstraint=eastwest;whiteSpace=wrap;html=1;" vertex="1" parent="QNVyYZ68Ig6UdcTOOayE-51">
          <mxGeometry y="78" width="150" height="26" as="geometry" />
        </mxCell>
        <mxCell id="QNVyYZ68Ig6UdcTOOayE-55" value="&amp;lt;&amp;lt;FK&amp;gt;&amp;gt; - pedido_id: Long" style="text;strokeColor=none;fillColor=none;align=left;verticalAlign=top;spacingLeft=4;spacingRight=4;overflow=hidden;rotatable=0;points=[[0,0.5],[1,0.5]];portConstraint=eastwest;whiteSpace=wrap;html=1;" vertex="1" parent="QNVyYZ68Ig6UdcTOOayE-51">
          <mxGeometry y="104" width="150" height="26" as="geometry" />
        </mxCell>
        <mxCell id="QNVyYZ68Ig6UdcTOOayE-56" value="comanda" style="swimlane;fontStyle=0;childLayout=stackLayout;horizontal=1;startSize=26;fillColor=none;horizontalStack=0;resizeParent=1;resizeParentMax=0;resizeLast=0;collapsible=1;marginBottom=0;whiteSpace=wrap;html=1;" vertex="1" parent="WIyWlLk6GJQsqaUBKTNV-1">
          <mxGeometry x="930" y="1685" width="170" height="130" as="geometry" />
        </mxCell>
        <mxCell id="QNVyYZ68Ig6UdcTOOayE-57" value="- id: Long" style="text;strokeColor=none;fillColor=none;align=left;verticalAlign=top;spacingLeft=4;spacingRight=4;overflow=hidden;rotatable=0;points=[[0,0.5],[1,0.5]];portConstraint=eastwest;whiteSpace=wrap;html=1;" vertex="1" parent="QNVyYZ68Ig6UdcTOOayE-56">
          <mxGeometry y="26" width="170" height="26" as="geometry" />
        </mxCell>
        <mxCell id="QNVyYZ68Ig6UdcTOOayE-58" value="- quantidade: Integer" style="text;strokeColor=none;fillColor=none;align=left;verticalAlign=top;spacingLeft=4;spacingRight=4;overflow=hidden;rotatable=0;points=[[0,0.5],[1,0.5]];portConstraint=eastwest;whiteSpace=wrap;html=1;" vertex="1" parent="QNVyYZ68Ig6UdcTOOayE-56">
          <mxGeometry y="52" width="170" height="26" as="geometry" />
        </mxCell>
        <mxCell id="QNVyYZ68Ig6UdcTOOayE-59" value="- valorDesconto: BigDecimal" style="text;strokeColor=none;fillColor=none;align=left;verticalAlign=top;spacingLeft=4;spacingRight=4;overflow=hidden;rotatable=0;points=[[0,0.5],[1,0.5]];portConstraint=eastwest;whiteSpace=wrap;html=1;" vertex="1" parent="QNVyYZ68Ig6UdcTOOayE-56">
          <mxGeometry y="78" width="170" height="26" as="geometry" />
        </mxCell>
        <mxCell id="QNVyYZ68Ig6UdcTOOayE-60" value="- valorTotal: BigDecimal" style="text;strokeColor=none;fillColor=none;align=left;verticalAlign=top;spacingLeft=4;spacingRight=4;overflow=hidden;rotatable=0;points=[[0,0.5],[1,0.5]];portConstraint=eastwest;whiteSpace=wrap;html=1;" vertex="1" parent="QNVyYZ68Ig6UdcTOOayE-56">
          <mxGeometry y="104" width="170" height="26" as="geometry" />
        </mxCell>
        <mxCell id="QNVyYZ68Ig6UdcTOOayE-61" value="Permissao" style="swimlane;fontStyle=1;align=center;verticalAlign=top;childLayout=stackLayout;horizontal=1;startSize=26;horizontalStack=0;resizeParent=1;resizeParentMax=0;resizeLast=0;collapsible=1;marginBottom=0;whiteSpace=wrap;html=1;" vertex="1" parent="WIyWlLk6GJQsqaUBKTNV-1">
          <mxGeometry x="1393.67" y="610" width="170" height="108" as="geometry" />
        </mxCell>
        <mxCell id="QNVyYZ68Ig6UdcTOOayE-62" value="- id: Long" style="text;strokeColor=none;fillColor=none;align=left;verticalAlign=top;spacingLeft=4;spacingRight=4;overflow=hidden;rotatable=0;points=[[0,0.5],[1,0.5]];portConstraint=eastwest;whiteSpace=wrap;html=1;" vertex="1" parent="QNVyYZ68Ig6UdcTOOayE-61">
          <mxGeometry y="26" width="170" height="30" as="geometry" />
        </mxCell>
        <mxCell id="QNVyYZ68Ig6UdcTOOayE-63" value="- nome: String" style="text;strokeColor=none;fillColor=none;align=left;verticalAlign=top;spacingLeft=4;spacingRight=4;overflow=hidden;rotatable=0;points=[[0,0.5],[1,0.5]];portConstraint=eastwest;whiteSpace=wrap;html=1;" vertex="1" parent="QNVyYZ68Ig6UdcTOOayE-61">
          <mxGeometry y="56" width="170" height="26" as="geometry" />
        </mxCell>
        <mxCell id="QNVyYZ68Ig6UdcTOOayE-64" value="- descricao: String" style="text;strokeColor=none;fillColor=none;align=left;verticalAlign=top;spacingLeft=4;spacingRight=4;overflow=hidden;rotatable=0;points=[[0,0.5],[1,0.5]];portConstraint=eastwest;whiteSpace=wrap;html=1;" vertex="1" parent="QNVyYZ68Ig6UdcTOOayE-61">
          <mxGeometry y="82" width="170" height="26" as="geometry" />
        </mxCell>
        <mxCell id="QNVyYZ68Ig6UdcTOOayE-65" value="Grupo" style="swimlane;fontStyle=0;childLayout=stackLayout;horizontal=1;startSize=26;fillColor=none;horizontalStack=0;resizeParent=1;resizeParentMax=0;resizeLast=0;collapsible=1;marginBottom=0;whiteSpace=wrap;html=1;" vertex="1" parent="WIyWlLk6GJQsqaUBKTNV-1">
          <mxGeometry x="1363.67" y="940" width="230" height="78" as="geometry" />
        </mxCell>
        <mxCell id="QNVyYZ68Ig6UdcTOOayE-66" value="- id: Long" style="text;strokeColor=none;fillColor=none;align=left;verticalAlign=top;spacingLeft=4;spacingRight=4;overflow=hidden;rotatable=0;points=[[0,0.5],[1,0.5]];portConstraint=eastwest;whiteSpace=wrap;html=1;" vertex="1" parent="QNVyYZ68Ig6UdcTOOayE-65">
          <mxGeometry y="26" width="230" height="26" as="geometry" />
        </mxCell>
        <mxCell id="QNVyYZ68Ig6UdcTOOayE-67" value="- nome: String" style="text;strokeColor=none;fillColor=none;align=left;verticalAlign=top;spacingLeft=4;spacingRight=4;overflow=hidden;rotatable=0;points=[[0,0.5],[1,0.5]];portConstraint=eastwest;whiteSpace=wrap;html=1;" vertex="1" parent="QNVyYZ68Ig6UdcTOOayE-65">
          <mxGeometry y="52" width="230" height="26" as="geometry" />
        </mxCell>
        <mxCell id="QNVyYZ68Ig6UdcTOOayE-68" value="Pedido" style="swimlane;fontStyle=0;childLayout=stackLayout;horizontal=1;startSize=26;fillColor=none;horizontalStack=0;resizeParent=1;resizeParentMax=0;resizeLast=0;collapsible=1;marginBottom=0;whiteSpace=wrap;html=1;" vertex="1" parent="WIyWlLk6GJQsqaUBKTNV-1">
          <mxGeometry x="1100" y="1480" width="200" height="104" as="geometry" />
        </mxCell>
        <mxCell id="QNVyYZ68Ig6UdcTOOayE-69" value="- coidigo: Long" style="text;strokeColor=none;fillColor=none;align=left;verticalAlign=top;spacingLeft=4;spacingRight=4;overflow=hidden;rotatable=0;points=[[0,0.5],[1,0.5]];portConstraint=eastwest;whiteSpace=wrap;html=1;" vertex="1" parent="QNVyYZ68Ig6UdcTOOayE-68">
          <mxGeometry y="26" width="200" height="26" as="geometry" />
        </mxCell>
        <mxCell id="QNVyYZ68Ig6UdcTOOayE-70" value="- dataPedido: LocalDate" style="text;strokeColor=none;fillColor=none;align=left;verticalAlign=top;spacingLeft=4;spacingRight=4;overflow=hidden;rotatable=0;points=[[0,0.5],[1,0.5]];portConstraint=eastwest;whiteSpace=wrap;html=1;" vertex="1" parent="QNVyYZ68Ig6UdcTOOayE-68">
          <mxGeometry y="52" width="200" height="26" as="geometry" />
        </mxCell>
        <mxCell id="QNVyYZ68Ig6UdcTOOayE-71" value="- statusPedido: String" style="text;strokeColor=none;fillColor=none;align=left;verticalAlign=top;spacingLeft=4;spacingRight=4;overflow=hidden;rotatable=0;points=[[0,0.5],[1,0.5]];portConstraint=eastwest;whiteSpace=wrap;html=1;" vertex="1" parent="QNVyYZ68Ig6UdcTOOayE-68">
          <mxGeometry y="78" width="200" height="26" as="geometry" />
        </mxCell>
        <mxCell id="QNVyYZ68Ig6UdcTOOayE-72" value="Produto" style="swimlane;fontStyle=0;childLayout=stackLayout;horizontal=1;startSize=26;fillColor=none;horizontalStack=0;resizeParent=1;resizeParentMax=0;resizeLast=0;collapsible=1;marginBottom=0;whiteSpace=wrap;html=1;" vertex="1" parent="WIyWlLk6GJQsqaUBKTNV-1">
          <mxGeometry x="1441" y="1659" width="170" height="182" as="geometry" />
        </mxCell>
        <mxCell id="QNVyYZ68Ig6UdcTOOayE-73" value="- codigo: Long" style="text;strokeColor=none;fillColor=none;align=left;verticalAlign=top;spacingLeft=4;spacingRight=4;overflow=hidden;rotatable=0;points=[[0,0.5],[1,0.5]];portConstraint=eastwest;whiteSpace=wrap;html=1;" vertex="1" parent="QNVyYZ68Ig6UdcTOOayE-72">
          <mxGeometry y="26" width="170" height="26" as="geometry" />
        </mxCell>
        <mxCell id="QNVyYZ68Ig6UdcTOOayE-74" value="- descricao: String" style="text;strokeColor=none;fillColor=none;align=left;verticalAlign=top;spacingLeft=4;spacingRight=4;overflow=hidden;rotatable=0;points=[[0,0.5],[1,0.5]];portConstraint=eastwest;whiteSpace=wrap;html=1;" vertex="1" parent="QNVyYZ68Ig6UdcTOOayE-72">
          <mxGeometry y="52" width="170" height="26" as="geometry" />
        </mxCell>
        <mxCell id="QNVyYZ68Ig6UdcTOOayE-75" value="- quantidadeEstoque: Integer" style="text;strokeColor=none;fillColor=none;align=left;verticalAlign=top;spacingLeft=4;spacingRight=4;overflow=hidden;rotatable=0;points=[[0,0.5],[1,0.5]];portConstraint=eastwest;whiteSpace=wrap;html=1;" vertex="1" parent="QNVyYZ68Ig6UdcTOOayE-72">
          <mxGeometry y="78" width="170" height="26" as="geometry" />
        </mxCell>
        <mxCell id="QNVyYZ68Ig6UdcTOOayE-76" value="- categoria: String" style="text;strokeColor=none;fillColor=none;align=left;verticalAlign=top;spacingLeft=4;spacingRight=4;overflow=hidden;rotatable=0;points=[[0,0.5],[1,0.5]];portConstraint=eastwest;whiteSpace=wrap;html=1;" vertex="1" parent="QNVyYZ68Ig6UdcTOOayE-72">
          <mxGeometry y="104" width="170" height="26" as="geometry" />
        </mxCell>
        <mxCell id="QNVyYZ68Ig6UdcTOOayE-77" value="- estoque: Integer" style="text;strokeColor=none;fillColor=none;align=left;verticalAlign=top;spacingLeft=4;spacingRight=4;overflow=hidden;rotatable=0;points=[[0,0.5],[1,0.5]];portConstraint=eastwest;whiteSpace=wrap;html=1;" vertex="1" parent="QNVyYZ68Ig6UdcTOOayE-72">
          <mxGeometry y="130" width="170" height="26" as="geometry" />
        </mxCell>
        <mxCell id="QNVyYZ68Ig6UdcTOOayE-78" value="- valorUnitario: BigDecimal" style="text;strokeColor=none;fillColor=none;align=left;verticalAlign=top;spacingLeft=4;spacingRight=4;overflow=hidden;rotatable=0;points=[[0,0.5],[1,0.5]];portConstraint=eastwest;whiteSpace=wrap;html=1;" vertex="1" parent="QNVyYZ68Ig6UdcTOOayE-72">
          <mxGeometry y="156" width="170" height="26" as="geometry" />
        </mxCell>
        <mxCell id="QNVyYZ68Ig6UdcTOOayE-79" style="edgeStyle=orthogonalEdgeStyle;rounded=0;orthogonalLoop=1;jettySize=auto;html=1;entryX=0;entryY=0.5;entryDx=0;entryDy=0;" edge="1" parent="WIyWlLk6GJQsqaUBKTNV-1" source="QNVyYZ68Ig6UdcTOOayE-0" target="QNVyYZ68Ig6UdcTOOayE-49">
          <mxGeometry relative="1" as="geometry" />
        </mxCell>
        <mxCell id="QNVyYZ68Ig6UdcTOOayE-80" value="1..1" style="edgeLabel;html=1;align=center;verticalAlign=middle;resizable=0;points=[];" vertex="1" connectable="0" parent="QNVyYZ68Ig6UdcTOOayE-79">
          <mxGeometry x="-0.913" y="2" relative="1" as="geometry">
            <mxPoint as="offset" />
          </mxGeometry>
        </mxCell>
        <mxCell id="QNVyYZ68Ig6UdcTOOayE-81" value="1..1" style="edgeLabel;html=1;align=center;verticalAlign=middle;resizable=0;points=[];" vertex="1" connectable="0" parent="QNVyYZ68Ig6UdcTOOayE-79">
          <mxGeometry x="0.8527" relative="1" as="geometry">
            <mxPoint as="offset" />
          </mxGeometry>
        </mxCell>
        <mxCell id="QNVyYZ68Ig6UdcTOOayE-82" style="edgeStyle=orthogonalEdgeStyle;rounded=0;orthogonalLoop=1;jettySize=auto;html=1;entryX=0.006;entryY=0.051;entryDx=0;entryDy=0;entryPerimeter=0;" edge="1" parent="WIyWlLk6GJQsqaUBKTNV-1" source="QNVyYZ68Ig6UdcTOOayE-3" target="QNVyYZ68Ig6UdcTOOayE-18">
          <mxGeometry relative="1" as="geometry" />
        </mxCell>
        <mxCell id="QNVyYZ68Ig6UdcTOOayE-83" value="0..n" style="edgeLabel;html=1;align=center;verticalAlign=middle;resizable=0;points=[];" vertex="1" connectable="0" parent="QNVyYZ68Ig6UdcTOOayE-82">
          <mxGeometry x="-0.8435" relative="1" as="geometry">
            <mxPoint y="-7" as="offset" />
          </mxGeometry>
        </mxCell>
        <mxCell id="QNVyYZ68Ig6UdcTOOayE-84" value="1..1" style="edgeLabel;html=1;align=center;verticalAlign=middle;resizable=0;points=[];" vertex="1" connectable="0" parent="QNVyYZ68Ig6UdcTOOayE-82">
          <mxGeometry x="0.8539" y="-1" relative="1" as="geometry">
            <mxPoint x="-3" y="-10" as="offset" />
          </mxGeometry>
        </mxCell>
        <mxCell id="QNVyYZ68Ig6UdcTOOayE-85" style="edgeStyle=orthogonalEdgeStyle;rounded=0;orthogonalLoop=1;jettySize=auto;html=1;entryX=-0.017;entryY=1.105;entryDx=0;entryDy=0;entryPerimeter=0;" edge="1" parent="WIyWlLk6GJQsqaUBKTNV-1" source="QNVyYZ68Ig6UdcTOOayE-130" target="QNVyYZ68Ig6UdcTOOayE-66">
          <mxGeometry relative="1" as="geometry" />
        </mxCell>
        <mxCell id="QNVyYZ68Ig6UdcTOOayE-86" value="0..n" style="edgeLabel;html=1;align=center;verticalAlign=middle;resizable=0;points=[];" vertex="1" connectable="0" parent="QNVyYZ68Ig6UdcTOOayE-85">
          <mxGeometry x="0.8496" y="2" relative="1" as="geometry">
            <mxPoint x="-14" y="-1" as="offset" />
          </mxGeometry>
        </mxCell>
        <mxCell id="QNVyYZ68Ig6UdcTOOayE-87" style="edgeStyle=orthogonalEdgeStyle;rounded=0;orthogonalLoop=1;jettySize=auto;html=1;entryX=0.5;entryY=0;entryDx=0;entryDy=0;exitX=1;exitY=0.75;exitDx=0;exitDy=0;" edge="1" parent="WIyWlLk6GJQsqaUBKTNV-1" source="QNVyYZ68Ig6UdcTOOayE-23">
          <mxGeometry relative="1" as="geometry">
            <mxPoint x="692" y="871.037037037037" as="sourcePoint" />
            <mxPoint x="874" y="1067.0000000000002" as="targetPoint" />
          </mxGeometry>
        </mxCell>
        <mxCell id="QNVyYZ68Ig6UdcTOOayE-88" value="0..1" style="edgeLabel;html=1;align=center;verticalAlign=middle;resizable=0;points=[];" vertex="1" connectable="0" parent="QNVyYZ68Ig6UdcTOOayE-87">
          <mxGeometry x="0.8869" y="1" relative="1" as="geometry">
            <mxPoint as="offset" />
          </mxGeometry>
        </mxCell>
        <mxCell id="QNVyYZ68Ig6UdcTOOayE-89" value="1..1" style="edgeLabel;html=1;align=center;verticalAlign=middle;resizable=0;points=[];" vertex="1" connectable="0" parent="QNVyYZ68Ig6UdcTOOayE-87">
          <mxGeometry x="-0.8854" y="2" relative="1" as="geometry">
            <mxPoint as="offset" />
          </mxGeometry>
        </mxCell>
        <mxCell id="QNVyYZ68Ig6UdcTOOayE-90" style="edgeStyle=orthogonalEdgeStyle;rounded=0;orthogonalLoop=1;jettySize=auto;html=1;entryX=1.017;entryY=1.083;entryDx=0;entryDy=0;entryPerimeter=0;" edge="1" parent="WIyWlLk6GJQsqaUBKTNV-1" source="QNVyYZ68Ig6UdcTOOayE-38" target="QNVyYZ68Ig6UdcTOOayE-26">
          <mxGeometry relative="1" as="geometry" />
        </mxCell>
        <mxCell id="QNVyYZ68Ig6UdcTOOayE-91" value="1..1" style="edgeLabel;html=1;align=center;verticalAlign=middle;resizable=0;points=[];" vertex="1" connectable="0" parent="QNVyYZ68Ig6UdcTOOayE-90">
          <mxGeometry x="0.8208" y="-1" relative="1" as="geometry">
            <mxPoint as="offset" />
          </mxGeometry>
        </mxCell>
        <mxCell id="QNVyYZ68Ig6UdcTOOayE-92" value="0..n" style="edgeLabel;html=1;align=center;verticalAlign=middle;resizable=0;points=[];" vertex="1" connectable="0" parent="QNVyYZ68Ig6UdcTOOayE-90">
          <mxGeometry x="-0.8725" y="-1" relative="1" as="geometry">
            <mxPoint as="offset" />
          </mxGeometry>
        </mxCell>
        <mxCell id="QNVyYZ68Ig6UdcTOOayE-93" style="edgeStyle=orthogonalEdgeStyle;rounded=0;orthogonalLoop=1;jettySize=auto;html=1;entryX=1;entryY=0.5;entryDx=0;entryDy=0;exitX=0;exitY=0.5;exitDx=0;exitDy=0;" edge="1" parent="WIyWlLk6GJQsqaUBKTNV-1" source="QNVyYZ68Ig6UdcTOOayE-44" target="QNVyYZ68Ig6UdcTOOayE-38">
          <mxGeometry relative="1" as="geometry">
            <mxPoint x="1250" y="737" as="sourcePoint" />
          </mxGeometry>
        </mxCell>
        <mxCell id="QNVyYZ68Ig6UdcTOOayE-94" value="1..1" style="edgeLabel;html=1;align=center;verticalAlign=middle;resizable=0;points=[];" vertex="1" connectable="0" parent="QNVyYZ68Ig6UdcTOOayE-93">
          <mxGeometry x="0.7558" y="2" relative="1" as="geometry">
            <mxPoint as="offset" />
          </mxGeometry>
        </mxCell>
        <mxCell id="QNVyYZ68Ig6UdcTOOayE-95" value="1..n" style="edgeLabel;html=1;align=center;verticalAlign=middle;resizable=0;points=[];" vertex="1" connectable="0" parent="QNVyYZ68Ig6UdcTOOayE-93">
          <mxGeometry x="-0.7675" y="-1" relative="1" as="geometry">
            <mxPoint as="offset" />
          </mxGeometry>
        </mxCell>
        <mxCell id="QNVyYZ68Ig6UdcTOOayE-96" style="edgeStyle=orthogonalEdgeStyle;rounded=0;orthogonalLoop=1;jettySize=auto;html=1;strokeColor=default;endArrow=none;endFill=0;startArrow=classic;startFill=1;" edge="1" parent="WIyWlLk6GJQsqaUBKTNV-1" source="QNVyYZ68Ig6UdcTOOayE-69" target="QNVyYZ68Ig6UdcTOOayE-51">
          <mxGeometry relative="1" as="geometry" />
        </mxCell>
        <mxCell id="QNVyYZ68Ig6UdcTOOayE-97" value="0..1" style="edgeLabel;html=1;align=center;verticalAlign=middle;resizable=0;points=[];" vertex="1" connectable="0" parent="QNVyYZ68Ig6UdcTOOayE-96">
          <mxGeometry x="-0.7778" y="3" relative="1" as="geometry">
            <mxPoint y="-6" as="offset" />
          </mxGeometry>
        </mxCell>
        <mxCell id="QNVyYZ68Ig6UdcTOOayE-98" value="0..n" style="edgeLabel;html=1;align=center;verticalAlign=middle;resizable=0;points=[];" vertex="1" connectable="0" parent="QNVyYZ68Ig6UdcTOOayE-96">
          <mxGeometry x="0.7889" y="-2" relative="1" as="geometry">
            <mxPoint y="-11" as="offset" />
          </mxGeometry>
        </mxCell>
        <mxCell id="QNVyYZ68Ig6UdcTOOayE-99" style="edgeStyle=orthogonalEdgeStyle;rounded=0;orthogonalLoop=1;jettySize=auto;html=1;" edge="1" parent="WIyWlLk6GJQsqaUBKTNV-1" source="QNVyYZ68Ig6UdcTOOayE-133" target="QNVyYZ68Ig6UdcTOOayE-56">
          <mxGeometry relative="1" as="geometry">
            <mxPoint x="1060" y="1597.0526315789475" as="sourcePoint" />
            <Array as="points">
              <mxPoint x="1010" y="1630" />
            </Array>
          </mxGeometry>
        </mxCell>
        <mxCell id="QNVyYZ68Ig6UdcTOOayE-100" value="0..n" style="edgeLabel;html=1;align=center;verticalAlign=middle;resizable=0;points=[];" vertex="1" connectable="0" parent="QNVyYZ68Ig6UdcTOOayE-99">
          <mxGeometry x="0.7972" y="-2" relative="1" as="geometry">
            <mxPoint as="offset" />
          </mxGeometry>
        </mxCell>
        <mxCell id="QNVyYZ68Ig6UdcTOOayE-101" style="edgeStyle=orthogonalEdgeStyle;rounded=0;orthogonalLoop=1;jettySize=auto;html=1;entryX=0;entryY=0.5;entryDx=0;entryDy=0;" edge="1" parent="WIyWlLk6GJQsqaUBKTNV-1" source="QNVyYZ68Ig6UdcTOOayE-136" target="QNVyYZ68Ig6UdcTOOayE-72">
          <mxGeometry relative="1" as="geometry" />
        </mxCell>
        <mxCell id="QNVyYZ68Ig6UdcTOOayE-102" value="0..n" style="edgeLabel;html=1;align=center;verticalAlign=middle;resizable=0;points=[];" vertex="1" connectable="0" parent="QNVyYZ68Ig6UdcTOOayE-101">
          <mxGeometry x="0.713" y="2" relative="1" as="geometry">
            <mxPoint as="offset" />
          </mxGeometry>
        </mxCell>
        <mxCell id="QNVyYZ68Ig6UdcTOOayE-103" value="Caixa" style="swimlane;fontStyle=0;childLayout=stackLayout;horizontal=1;startSize=26;fillColor=none;horizontalStack=0;resizeParent=1;resizeParentMax=0;resizeLast=0;collapsible=1;marginBottom=0;whiteSpace=wrap;html=1;" vertex="1" parent="WIyWlLk6GJQsqaUBKTNV-1">
          <mxGeometry x="1450" y="1138" width="210" height="286" as="geometry" />
        </mxCell>
        <mxCell id="QNVyYZ68Ig6UdcTOOayE-104" value="- id: Long" style="text;strokeColor=none;fillColor=none;align=left;verticalAlign=top;spacingLeft=4;spacingRight=4;overflow=hidden;rotatable=0;points=[[0,0.5],[1,0.5]];portConstraint=eastwest;whiteSpace=wrap;html=1;" vertex="1" parent="QNVyYZ68Ig6UdcTOOayE-103">
          <mxGeometry y="26" width="210" height="26" as="geometry" />
        </mxCell>
        <mxCell id="QNVyYZ68Ig6UdcTOOayE-105" value="- dataAbertura: LocalDate" style="text;strokeColor=none;fillColor=none;align=left;verticalAlign=top;spacingLeft=4;spacingRight=4;overflow=hidden;rotatable=0;points=[[0,0.5],[1,0.5]];portConstraint=eastwest;whiteSpace=wrap;html=1;" vertex="1" parent="QNVyYZ68Ig6UdcTOOayE-103">
          <mxGeometry y="52" width="210" height="26" as="geometry" />
        </mxCell>
        <mxCell id="QNVyYZ68Ig6UdcTOOayE-106" value="- dataFechamento: LocalDate" style="text;strokeColor=none;fillColor=none;align=left;verticalAlign=top;spacingLeft=4;spacingRight=4;overflow=hidden;rotatable=0;points=[[0,0.5],[1,0.5]];portConstraint=eastwest;whiteSpace=wrap;html=1;" vertex="1" parent="QNVyYZ68Ig6UdcTOOayE-103">
          <mxGeometry y="78" width="210" height="26" as="geometry" />
        </mxCell>
        <mxCell id="QNVyYZ68Ig6UdcTOOayE-107" value="- statusCaixa: boolean" style="text;strokeColor=none;fillColor=none;align=left;verticalAlign=top;spacingLeft=4;spacingRight=4;overflow=hidden;rotatable=0;points=[[0,0.5],[1,0.5]];portConstraint=eastwest;whiteSpace=wrap;html=1;" vertex="1" parent="QNVyYZ68Ig6UdcTOOayE-103">
          <mxGeometry y="104" width="210" height="26" as="geometry" />
        </mxCell>
        <mxCell id="QNVyYZ68Ig6UdcTOOayE-108" value="- saldoInicial: BigDecimal" style="text;strokeColor=none;fillColor=none;align=left;verticalAlign=top;spacingLeft=4;spacingRight=4;overflow=hidden;rotatable=0;points=[[0,0.5],[1,0.5]];portConstraint=eastwest;whiteSpace=wrap;html=1;" vertex="1" parent="QNVyYZ68Ig6UdcTOOayE-103">
          <mxGeometry y="130" width="210" height="26" as="geometry" />
        </mxCell>
        <mxCell id="QNVyYZ68Ig6UdcTOOayE-109" value="- saldoFechamento: BigDecimal" style="text;strokeColor=none;fillColor=none;align=left;verticalAlign=top;spacingLeft=4;spacingRight=4;overflow=hidden;rotatable=0;points=[[0,0.5],[1,0.5]];portConstraint=eastwest;whiteSpace=wrap;html=1;" vertex="1" parent="QNVyYZ68Ig6UdcTOOayE-103">
          <mxGeometry y="156" width="210" height="26" as="geometry" />
        </mxCell>
        <mxCell id="QNVyYZ68Ig6UdcTOOayE-110" value="- saldoConferido: BigDecimal" style="text;strokeColor=none;fillColor=none;align=left;verticalAlign=top;spacingLeft=4;spacingRight=4;overflow=hidden;rotatable=0;points=[[0,0.5],[1,0.5]];portConstraint=eastwest;whiteSpace=wrap;html=1;" vertex="1" parent="QNVyYZ68Ig6UdcTOOayE-103">
          <mxGeometry y="182" width="210" height="26" as="geometry" />
        </mxCell>
        <mxCell id="QNVyYZ68Ig6UdcTOOayE-111" value="- saldoDiferenca: BigDecimal" style="text;strokeColor=none;fillColor=none;align=left;verticalAlign=top;spacingLeft=4;spacingRight=4;overflow=hidden;rotatable=0;points=[[0,0.5],[1,0.5]];portConstraint=eastwest;whiteSpace=wrap;html=1;" vertex="1" parent="QNVyYZ68Ig6UdcTOOayE-103">
          <mxGeometry y="208" width="210" height="26" as="geometry" />
        </mxCell>
        <mxCell id="QNVyYZ68Ig6UdcTOOayE-112" value="- usuario: Usuario" style="text;strokeColor=none;fillColor=none;align=left;verticalAlign=top;spacingLeft=4;spacingRight=4;overflow=hidden;rotatable=0;points=[[0,0.5],[1,0.5]];portConstraint=eastwest;whiteSpace=wrap;html=1;" vertex="1" parent="QNVyYZ68Ig6UdcTOOayE-103">
          <mxGeometry y="234" width="210" height="26" as="geometry" />
        </mxCell>
        <mxCell id="QNVyYZ68Ig6UdcTOOayE-113" value="- lancamentos: Set&amp;lt;Lancamento&amp;gt;" style="text;strokeColor=none;fillColor=none;align=left;verticalAlign=top;spacingLeft=4;spacingRight=4;overflow=hidden;rotatable=0;points=[[0,0.5],[1,0.5]];portConstraint=eastwest;whiteSpace=wrap;html=1;" vertex="1" parent="QNVyYZ68Ig6UdcTOOayE-103">
          <mxGeometry y="260" width="210" height="26" as="geometry" />
        </mxCell>
        <mxCell id="QNVyYZ68Ig6UdcTOOayE-114" value="Lancamento" style="swimlane;fontStyle=0;childLayout=stackLayout;horizontal=1;startSize=26;fillColor=none;horizontalStack=0;resizeParent=1;resizeParentMax=0;resizeLast=0;collapsible=1;marginBottom=0;whiteSpace=wrap;html=1;" vertex="1" parent="WIyWlLk6GJQsqaUBKTNV-1">
          <mxGeometry x="1160" y="1190" width="140" height="182" as="geometry" />
        </mxCell>
        <mxCell id="QNVyYZ68Ig6UdcTOOayE-115" value="- sequencia: Long" style="text;strokeColor=none;fillColor=none;align=left;verticalAlign=top;spacingLeft=4;spacingRight=4;overflow=hidden;rotatable=0;points=[[0,0.5],[1,0.5]];portConstraint=eastwest;whiteSpace=wrap;html=1;" vertex="1" parent="QNVyYZ68Ig6UdcTOOayE-114">
          <mxGeometry y="26" width="140" height="26" as="geometry" />
        </mxCell>
        <mxCell id="QNVyYZ68Ig6UdcTOOayE-116" value="- valor: BigDecimal" style="text;strokeColor=none;fillColor=none;align=left;verticalAlign=top;spacingLeft=4;spacingRight=4;overflow=hidden;rotatable=0;points=[[0,0.5],[1,0.5]];portConstraint=eastwest;whiteSpace=wrap;html=1;" vertex="1" parent="QNVyYZ68Ig6UdcTOOayE-114">
          <mxGeometry y="52" width="140" height="26" as="geometry" />
        </mxCell>
        <mxCell id="QNVyYZ68Ig6UdcTOOayE-117" value="- usuario: Usuario" style="text;strokeColor=none;fillColor=none;align=left;verticalAlign=top;spacingLeft=4;spacingRight=4;overflow=hidden;rotatable=0;points=[[0,0.5],[1,0.5]];portConstraint=eastwest;whiteSpace=wrap;html=1;" vertex="1" parent="QNVyYZ68Ig6UdcTOOayE-114">
          <mxGeometry y="78" width="140" height="26" as="geometry" />
        </mxCell>
        <mxCell id="QNVyYZ68Ig6UdcTOOayE-118" value="- log: String" style="text;strokeColor=none;fillColor=none;align=left;verticalAlign=top;spacingLeft=4;spacingRight=4;overflow=hidden;rotatable=0;points=[[0,0.5],[1,0.5]];portConstraint=eastwest;whiteSpace=wrap;html=1;" vertex="1" parent="QNVyYZ68Ig6UdcTOOayE-114">
          <mxGeometry y="104" width="140" height="26" as="geometry" />
        </mxCell>
        <mxCell id="QNVyYZ68Ig6UdcTOOayE-119" value="- caixa: Caixa" style="text;strokeColor=none;fillColor=none;align=left;verticalAlign=top;spacingLeft=4;spacingRight=4;overflow=hidden;rotatable=0;points=[[0,0.5],[1,0.5]];portConstraint=eastwest;whiteSpace=wrap;html=1;" vertex="1" parent="QNVyYZ68Ig6UdcTOOayE-114">
          <mxGeometry y="130" width="140" height="26" as="geometry" />
        </mxCell>
        <mxCell id="QNVyYZ68Ig6UdcTOOayE-120" value="- pedido: Pedido" style="text;strokeColor=none;fillColor=none;align=left;verticalAlign=top;spacingLeft=4;spacingRight=4;overflow=hidden;rotatable=0;points=[[0,0.5],[1,0.5]];portConstraint=eastwest;whiteSpace=wrap;html=1;" vertex="1" parent="QNVyYZ68Ig6UdcTOOayE-114">
          <mxGeometry y="156" width="140" height="26" as="geometry" />
        </mxCell>
        <mxCell id="QNVyYZ68Ig6UdcTOOayE-121" style="edgeStyle=orthogonalEdgeStyle;rounded=0;orthogonalLoop=1;jettySize=auto;html=1;entryX=0.506;entryY=0.974;entryDx=0;entryDy=0;entryPerimeter=0;endArrow=none;endFill=0;" edge="1" parent="WIyWlLk6GJQsqaUBKTNV-1" source="QNVyYZ68Ig6UdcTOOayE-127" target="QNVyYZ68Ig6UdcTOOayE-64">
          <mxGeometry relative="1" as="geometry" />
        </mxCell>
        <mxCell id="QNVyYZ68Ig6UdcTOOayE-122" value="0..n" style="edgeLabel;html=1;align=center;verticalAlign=middle;resizable=0;points=[];" vertex="1" connectable="0" parent="QNVyYZ68Ig6UdcTOOayE-121">
          <mxGeometry x="0.5618" y="-2" relative="1" as="geometry">
            <mxPoint as="offset" />
          </mxGeometry>
        </mxCell>
        <mxCell id="QNVyYZ68Ig6UdcTOOayE-123" style="edgeStyle=orthogonalEdgeStyle;rounded=0;orthogonalLoop=1;jettySize=auto;html=1;entryX=0.5;entryY=0;entryDx=0;entryDy=0;" edge="1" parent="WIyWlLk6GJQsqaUBKTNV-1" source="QNVyYZ68Ig6UdcTOOayE-17" target="QNVyYZ68Ig6UdcTOOayE-114">
          <mxGeometry relative="1" as="geometry" />
        </mxCell>
        <mxCell id="QNVyYZ68Ig6UdcTOOayE-124" style="edgeStyle=orthogonalEdgeStyle;rounded=0;orthogonalLoop=1;jettySize=auto;html=1;" edge="1" parent="WIyWlLk6GJQsqaUBKTNV-1" source="QNVyYZ68Ig6UdcTOOayE-103" target="QNVyYZ68Ig6UdcTOOayE-114">
          <mxGeometry relative="1" as="geometry" />
        </mxCell>
        <mxCell id="QNVyYZ68Ig6UdcTOOayE-125" value="" style="edgeStyle=orthogonalEdgeStyle;rounded=0;orthogonalLoop=1;jettySize=auto;html=1;entryX=0.506;entryY=0.974;entryDx=0;entryDy=0;entryPerimeter=0;endArrow=none;endFill=0;" edge="1" parent="WIyWlLk6GJQsqaUBKTNV-1" source="QNVyYZ68Ig6UdcTOOayE-65" target="QNVyYZ68Ig6UdcTOOayE-127">
          <mxGeometry relative="1" as="geometry">
            <mxPoint x="1493.67" y="1060" as="sourcePoint" />
            <mxPoint x="1494.67" y="717" as="targetPoint" />
          </mxGeometry>
        </mxCell>
        <mxCell id="QNVyYZ68Ig6UdcTOOayE-126" value="0..n" style="edgeLabel;html=1;align=center;verticalAlign=middle;resizable=0;points=[];" vertex="1" connectable="0" parent="QNVyYZ68Ig6UdcTOOayE-125">
          <mxGeometry x="-0.6336" y="1" relative="1" as="geometry">
            <mxPoint as="offset" />
          </mxGeometry>
        </mxCell>
        <mxCell id="QNVyYZ68Ig6UdcTOOayE-127" value="Permissao_Grupo" style="shape=rhombus;perimeter=rhombusPerimeter;whiteSpace=wrap;html=1;align=center;" vertex="1" parent="WIyWlLk6GJQsqaUBKTNV-1">
          <mxGeometry x="1418.67" y="808" width="120" height="60" as="geometry" />
        </mxCell>
        <mxCell id="QNVyYZ68Ig6UdcTOOayE-128" value="" style="edgeStyle=orthogonalEdgeStyle;rounded=0;orthogonalLoop=1;jettySize=auto;html=1;endArrow=none;endFill=0;" edge="1" parent="WIyWlLk6GJQsqaUBKTNV-1" source="QNVyYZ68Ig6UdcTOOayE-16" target="QNVyYZ68Ig6UdcTOOayE-130">
          <mxGeometry relative="1" as="geometry">
            <mxPoint x="980" y="1106" as="sourcePoint" />
            <mxPoint x="1281" y="985" as="targetPoint" />
          </mxGeometry>
        </mxCell>
        <mxCell id="QNVyYZ68Ig6UdcTOOayE-129" value="1..n" style="edgeLabel;html=1;align=center;verticalAlign=middle;resizable=0;points=[];" vertex="1" connectable="0" parent="QNVyYZ68Ig6UdcTOOayE-128">
          <mxGeometry x="-0.8856" y="3" relative="1" as="geometry">
            <mxPoint x="17" y="3" as="offset" />
          </mxGeometry>
        </mxCell>
        <mxCell id="QNVyYZ68Ig6UdcTOOayE-130" value="Grupo_Usuario" style="shape=rhombus;perimeter=rhombusPerimeter;whiteSpace=wrap;html=1;align=center;" vertex="1" parent="WIyWlLk6GJQsqaUBKTNV-1">
          <mxGeometry x="1120" y="1020" width="120" height="60" as="geometry" />
        </mxCell>
        <mxCell id="QNVyYZ68Ig6UdcTOOayE-131" value="" style="edgeStyle=orthogonalEdgeStyle;rounded=0;orthogonalLoop=1;jettySize=auto;html=1;endArrow=none;endFill=0;" edge="1" parent="WIyWlLk6GJQsqaUBKTNV-1" source="QNVyYZ68Ig6UdcTOOayE-68" target="QNVyYZ68Ig6UdcTOOayE-133">
          <mxGeometry relative="1" as="geometry">
            <mxPoint x="1200" y="1584" as="sourcePoint" />
            <Array as="points">
              <mxPoint x="1200" y="1630" />
            </Array>
            <mxPoint x="1010" y="1680" as="targetPoint" />
          </mxGeometry>
        </mxCell>
        <mxCell id="QNVyYZ68Ig6UdcTOOayE-132" value="0..n" style="edgeLabel;html=1;align=center;verticalAlign=middle;resizable=0;points=[];" vertex="1" connectable="0" parent="QNVyYZ68Ig6UdcTOOayE-131">
          <mxGeometry x="-0.9091" relative="1" as="geometry">
            <mxPoint as="offset" />
          </mxGeometry>
        </mxCell>
        <mxCell id="QNVyYZ68Ig6UdcTOOayE-133" value="Comanda_Pedido" style="shape=rhombus;perimeter=rhombusPerimeter;whiteSpace=wrap;html=1;align=center;" vertex="1" parent="WIyWlLk6GJQsqaUBKTNV-1">
          <mxGeometry x="1050" y="1600" width="120" height="60" as="geometry" />
        </mxCell>
        <mxCell id="QNVyYZ68Ig6UdcTOOayE-134" value="" style="edgeStyle=orthogonalEdgeStyle;rounded=0;orthogonalLoop=1;jettySize=auto;html=1;entryX=0;entryY=0.5;entryDx=0;entryDy=0;endArrow=none;endFill=0;" edge="1" parent="WIyWlLk6GJQsqaUBKTNV-1" source="QNVyYZ68Ig6UdcTOOayE-58" target="QNVyYZ68Ig6UdcTOOayE-136">
          <mxGeometry relative="1" as="geometry">
            <mxPoint x="1100" y="1745" as="sourcePoint" />
            <mxPoint x="1330" y="1745" as="targetPoint" />
          </mxGeometry>
        </mxCell>
        <mxCell id="QNVyYZ68Ig6UdcTOOayE-135" value="0..n" style="edgeLabel;html=1;align=center;verticalAlign=middle;resizable=0;points=[];" vertex="1" connectable="0" parent="QNVyYZ68Ig6UdcTOOayE-134">
          <mxGeometry x="-0.8348" y="-1" relative="1" as="geometry">
            <mxPoint as="offset" />
          </mxGeometry>
        </mxCell>
        <mxCell id="QNVyYZ68Ig6UdcTOOayE-136" value="Comanda_Produto" style="shape=rhombus;perimeter=rhombusPerimeter;whiteSpace=wrap;html=1;align=center;" vertex="1" parent="WIyWlLk6GJQsqaUBKTNV-1">
          <mxGeometry x="1215" y="1720" width="120" height="60" as="geometry" />
        </mxCell>
        <mxCell id="QNVyYZ68Ig6UdcTOOayE-137" value="Endereco" style="swimlane;fontStyle=0;align=center;verticalAlign=top;childLayout=stackLayout;horizontal=1;startSize=26;horizontalStack=0;resizeParent=1;resizeLast=0;collapsible=1;marginBottom=0;rounded=0;shadow=0;strokeWidth=1;" vertex="1" parent="WIyWlLk6GJQsqaUBKTNV-1">
          <mxGeometry x="790" y="350" width="160" height="250" as="geometry">
            <mxRectangle x="550" y="140" width="160" height="26" as="alternateBounds" />
          </mxGeometry>
        </mxCell>
        <mxCell id="QNVyYZ68Ig6UdcTOOayE-138" value="&lt;&lt;PK&gt;&gt; -id: Long   " style="text;align=left;verticalAlign=top;spacingLeft=4;spacingRight=4;overflow=hidden;rotatable=0;points=[[0,0.5],[1,0.5]];portConstraint=eastwest;" vertex="1" parent="QNVyYZ68Ig6UdcTOOayE-137">
          <mxGeometry y="26" width="160" height="26" as="geometry" />
        </mxCell>
        <mxCell id="QNVyYZ68Ig6UdcTOOayE-139" value="-cidade: String" style="text;align=left;verticalAlign=top;spacingLeft=4;spacingRight=4;overflow=hidden;rotatable=0;points=[[0,0.5],[1,0.5]];portConstraint=eastwest;rounded=0;shadow=0;html=0;" vertex="1" parent="QNVyYZ68Ig6UdcTOOayE-137">
          <mxGeometry y="52" width="160" height="26" as="geometry" />
        </mxCell>
        <mxCell id="QNVyYZ68Ig6UdcTOOayE-140" value="-cep: String" style="text;align=left;verticalAlign=top;spacingLeft=4;spacingRight=4;overflow=hidden;rotatable=0;points=[[0,0.5],[1,0.5]];portConstraint=eastwest;rounded=0;shadow=0;html=0;" vertex="1" parent="QNVyYZ68Ig6UdcTOOayE-137">
          <mxGeometry y="78" width="160" height="26" as="geometry" />
        </mxCell>
        <mxCell id="QNVyYZ68Ig6UdcTOOayE-141" value="-logradouro: String" style="text;align=left;verticalAlign=top;spacingLeft=4;spacingRight=4;overflow=hidden;rotatable=0;points=[[0,0.5],[1,0.5]];portConstraint=eastwest;rounded=0;shadow=0;html=0;" vertex="1" parent="QNVyYZ68Ig6UdcTOOayE-137">
          <mxGeometry y="104" width="160" height="26" as="geometry" />
        </mxCell>
        <mxCell id="QNVyYZ68Ig6UdcTOOayE-142" value="-numero: String" style="text;align=left;verticalAlign=top;spacingLeft=4;spacingRight=4;overflow=hidden;rotatable=0;points=[[0,0.5],[1,0.5]];portConstraint=eastwest;rounded=0;shadow=0;html=0;" vertex="1" parent="QNVyYZ68Ig6UdcTOOayE-137">
          <mxGeometry y="130" width="160" height="26" as="geometry" />
        </mxCell>
        <mxCell id="QNVyYZ68Ig6UdcTOOayE-143" value="-complemento: String&#xa;" style="text;align=left;verticalAlign=top;spacingLeft=4;spacingRight=4;overflow=hidden;rotatable=0;points=[[0,0.5],[1,0.5]];portConstraint=eastwest;rounded=0;shadow=0;html=0;" vertex="1" parent="QNVyYZ68Ig6UdcTOOayE-137">
          <mxGeometry y="156" width="160" height="26" as="geometry" />
        </mxCell>
        <mxCell id="QNVyYZ68Ig6UdcTOOayE-147" value="- usuario: Usuario" style="text;strokeColor=none;fillColor=none;align=left;verticalAlign=top;spacingLeft=4;spacingRight=4;overflow=hidden;rotatable=0;points=[[0,0.5],[1,0.5]];portConstraint=eastwest;whiteSpace=wrap;html=1;" vertex="1" parent="QNVyYZ68Ig6UdcTOOayE-137">
          <mxGeometry y="182" width="160" height="26" as="geometry" />
        </mxCell>
        <mxCell id="QNVyYZ68Ig6UdcTOOayE-148" value="" style="line;strokeWidth=1;fillColor=none;align=left;verticalAlign=middle;spacingTop=-1;spacingLeft=3;spacingRight=3;rotatable=0;labelPosition=right;points=[];portConstraint=eastwest;strokeColor=inherit;" vertex="1" parent="QNVyYZ68Ig6UdcTOOayE-137">
          <mxGeometry y="208" width="160" height="8" as="geometry" />
        </mxCell>
        <mxCell id="QNVyYZ68Ig6UdcTOOayE-149" value="&amp;lt;&amp;lt;FK&amp;gt;&amp;gt; cidade_id: Long" style="text;strokeColor=none;fillColor=none;align=left;verticalAlign=top;spacingLeft=4;spacingRight=4;overflow=hidden;rotatable=0;points=[[0,0.5],[1,0.5]];portConstraint=eastwest;whiteSpace=wrap;html=1;" vertex="1" parent="QNVyYZ68Ig6UdcTOOayE-137">
          <mxGeometry y="216" width="160" height="26" as="geometry" />
        </mxCell>
        <mxCell id="QNVyYZ68Ig6UdcTOOayE-144" style="edgeStyle=orthogonalEdgeStyle;rounded=0;orthogonalLoop=1;jettySize=auto;html=1;exitX=0;exitY=0.5;exitDx=0;exitDy=0;entryX=0.5;entryY=0;entryDx=0;entryDy=0;" edge="1" parent="WIyWlLk6GJQsqaUBKTNV-1" source="QNVyYZ68Ig6UdcTOOayE-138" target="QNVyYZ68Ig6UdcTOOayE-23">
          <mxGeometry relative="1" as="geometry">
            <mxPoint x="610" y="646.5" as="targetPoint" />
            <mxPoint x="663" y="391.5" as="sourcePoint" />
          </mxGeometry>
        </mxCell>
        <mxCell id="QNVyYZ68Ig6UdcTOOayE-145" value="1..1" style="edgeLabel;html=1;align=center;verticalAlign=middle;resizable=0;points=[];" vertex="1" connectable="0" parent="QNVyYZ68Ig6UdcTOOayE-144">
          <mxGeometry x="-0.9096" relative="1" as="geometry">
            <mxPoint as="offset" />
          </mxGeometry>
        </mxCell>
        <mxCell id="QNVyYZ68Ig6UdcTOOayE-146" value="0..1" style="edgeLabel;html=1;align=center;verticalAlign=middle;resizable=0;points=[];" vertex="1" connectable="0" parent="QNVyYZ68Ig6UdcTOOayE-144">
          <mxGeometry x="0.868" y="-1" relative="1" as="geometry">
            <mxPoint as="offset" />
          </mxGeometry>
        </mxCell>
        <mxCell id="QNVyYZ68Ig6UdcTOOayE-169" value="Parto" style="swimlane;fontStyle=0;align=center;verticalAlign=top;childLayout=stackLayout;horizontal=1;startSize=26;horizontalStack=0;resizeParent=1;resizeLast=0;collapsible=1;marginBottom=0;rounded=0;shadow=0;strokeWidth=1;" vertex="1" parent="WIyWlLk6GJQsqaUBKTNV-1">
          <mxGeometry x="40" y="420" width="197" height="210" as="geometry">
            <mxRectangle x="550" y="140" width="160" height="26" as="alternateBounds" />
          </mxGeometry>
        </mxCell>
        <mxCell id="QNVyYZ68Ig6UdcTOOayE-170" value="&lt;&lt;PK&gt;&gt; -id: Long   " style="text;align=left;verticalAlign=top;spacingLeft=4;spacingRight=4;overflow=hidden;rotatable=0;points=[[0,0.5],[1,0.5]];portConstraint=eastwest;" vertex="1" parent="QNVyYZ68Ig6UdcTOOayE-169">
          <mxGeometry y="26" width="197" height="26" as="geometry" />
        </mxCell>
        <mxCell id="QNVyYZ68Ig6UdcTOOayE-171" value="-dataParto: LocalDate" style="text;align=left;verticalAlign=top;spacingLeft=4;spacingRight=4;overflow=hidden;rotatable=0;points=[[0,0.5],[1,0.5]];portConstraint=eastwest;rounded=0;shadow=0;html=0;" vertex="1" parent="QNVyYZ68Ig6UdcTOOayE-169">
          <mxGeometry y="52" width="197" height="26" as="geometry" />
        </mxCell>
        <mxCell id="QNVyYZ68Ig6UdcTOOayE-172" value="-dataNascimento: LocalDate" style="text;align=left;verticalAlign=top;spacingLeft=4;spacingRight=4;overflow=hidden;rotatable=0;points=[[0,0.5],[1,0.5]];portConstraint=eastwest;rounded=0;shadow=0;html=0;" vertex="1" parent="QNVyYZ68Ig6UdcTOOayE-169">
          <mxGeometry y="78" width="197" height="26" as="geometry" />
        </mxCell>
        <mxCell id="QNVyYZ68Ig6UdcTOOayE-176" value="-indicacaoParto: String" style="text;align=left;verticalAlign=top;spacingLeft=4;spacingRight=4;overflow=hidden;rotatable=0;points=[[0,0.5],[1,0.5]];portConstraint=eastwest;rounded=0;shadow=0;html=0;" vertex="1" parent="QNVyYZ68Ig6UdcTOOayE-169">
          <mxGeometry y="104" width="197" height="26" as="geometry" />
        </mxCell>
        <mxCell id="QNVyYZ68Ig6UdcTOOayE-177" value="-numSus: String" style="text;align=left;verticalAlign=top;spacingLeft=4;spacingRight=4;overflow=hidden;rotatable=0;points=[[0,0.5],[1,0.5]];portConstraint=eastwest;rounded=0;shadow=0;html=0;" vertex="1" parent="QNVyYZ68Ig6UdcTOOayE-169">
          <mxGeometry y="130" width="197" height="26" as="geometry" />
        </mxCell>
        <mxCell id="QNVyYZ68Ig6UdcTOOayE-178" value="" style="line;strokeWidth=1;fillColor=none;align=left;verticalAlign=middle;spacingTop=-1;spacingLeft=3;spacingRight=3;rotatable=0;labelPosition=right;points=[];portConstraint=eastwest;strokeColor=inherit;" vertex="1" parent="QNVyYZ68Ig6UdcTOOayE-169">
          <mxGeometry y="156" width="197" height="8" as="geometry" />
        </mxCell>
        <mxCell id="QNVyYZ68Ig6UdcTOOayE-183" value="&amp;lt;&amp;lt;FK&amp;gt;&amp;gt; parto_id: Long" style="text;strokeColor=none;fillColor=none;align=left;verticalAlign=top;spacingLeft=4;spacingRight=4;overflow=hidden;rotatable=0;points=[[0,0.5],[1,0.5]];portConstraint=eastwest;whiteSpace=wrap;html=1;" vertex="1" parent="QNVyYZ68Ig6UdcTOOayE-169">
          <mxGeometry y="164" width="197" height="26" as="geometry" />
        </mxCell>
        <mxCell id="QNVyYZ68Ig6UdcTOOayE-180" style="edgeStyle=orthogonalEdgeStyle;rounded=0;orthogonalLoop=1;jettySize=auto;html=1;entryX=0.25;entryY=0;entryDx=0;entryDy=0;" edge="1" parent="WIyWlLk6GJQsqaUBKTNV-1" source="QNVyYZ68Ig6UdcTOOayE-176" target="QNVyYZ68Ig6UdcTOOayE-23">
          <mxGeometry relative="1" as="geometry" />
        </mxCell>
        <mxCell id="QNVyYZ68Ig6UdcTOOayE-181" value="1..1" style="edgeLabel;html=1;align=center;verticalAlign=middle;resizable=0;points=[];" vertex="1" connectable="0" parent="QNVyYZ68Ig6UdcTOOayE-180">
          <mxGeometry x="-0.8097" y="-3" relative="1" as="geometry">
            <mxPoint y="-3" as="offset" />
          </mxGeometry>
        </mxCell>
        <mxCell id="QNVyYZ68Ig6UdcTOOayE-182" value="1..1" style="edgeLabel;html=1;align=center;verticalAlign=middle;resizable=0;points=[];" vertex="1" connectable="0" parent="QNVyYZ68Ig6UdcTOOayE-180">
          <mxGeometry x="0.8351" y="4" relative="1" as="geometry">
            <mxPoint x="-3" as="offset" />
          </mxGeometry>
        </mxCell>
        <mxCell id="QNVyYZ68Ig6UdcTOOayE-184" value="Complicao" style="swimlane;fontStyle=0;align=center;verticalAlign=top;childLayout=stackLayout;horizontal=1;startSize=26;horizontalStack=0;resizeParent=1;resizeLast=0;collapsible=1;marginBottom=0;rounded=0;shadow=0;strokeWidth=1;" vertex="1" parent="WIyWlLk6GJQsqaUBKTNV-1">
          <mxGeometry x="40" y="880" width="197" height="120" as="geometry">
            <mxRectangle x="550" y="140" width="160" height="26" as="alternateBounds" />
          </mxGeometry>
        </mxCell>
        <mxCell id="QNVyYZ68Ig6UdcTOOayE-185" value="&lt;&lt;PK&gt;&gt; -id: Long   " style="text;align=left;verticalAlign=top;spacingLeft=4;spacingRight=4;overflow=hidden;rotatable=0;points=[[0,0.5],[1,0.5]];portConstraint=eastwest;" vertex="1" parent="QNVyYZ68Ig6UdcTOOayE-184">
          <mxGeometry y="26" width="197" height="26" as="geometry" />
        </mxCell>
        <mxCell id="QNVyYZ68Ig6UdcTOOayE-188" value="-descricao: String" style="text;align=left;verticalAlign=top;spacingLeft=4;spacingRight=4;overflow=hidden;rotatable=0;points=[[0,0.5],[1,0.5]];portConstraint=eastwest;rounded=0;shadow=0;html=0;" vertex="1" parent="QNVyYZ68Ig6UdcTOOayE-184">
          <mxGeometry y="52" width="197" height="26" as="geometry" />
        </mxCell>
        <mxCell id="QNVyYZ68Ig6UdcTOOayE-190" value="" style="line;strokeWidth=1;fillColor=none;align=left;verticalAlign=middle;spacingTop=-1;spacingLeft=3;spacingRight=3;rotatable=0;labelPosition=right;points=[];portConstraint=eastwest;strokeColor=inherit;" vertex="1" parent="QNVyYZ68Ig6UdcTOOayE-184">
          <mxGeometry y="78" width="197" height="8" as="geometry" />
        </mxCell>
        <mxCell id="QNVyYZ68Ig6UdcTOOayE-191" value="&amp;lt;&amp;lt;FK&amp;gt;&amp;gt; parto_id&lt;span style=&quot;background-color: initial;&quot;&gt;: Long&lt;/span&gt;" style="text;strokeColor=none;fillColor=none;align=left;verticalAlign=top;spacingLeft=4;spacingRight=4;overflow=hidden;rotatable=0;points=[[0,0.5],[1,0.5]];portConstraint=eastwest;whiteSpace=wrap;html=1;" vertex="1" parent="QNVyYZ68Ig6UdcTOOayE-184">
          <mxGeometry y="86" width="197" height="26" as="geometry" />
        </mxCell>
        <mxCell id="QNVyYZ68Ig6UdcTOOayE-196" value="" style="edgeStyle=orthogonalEdgeStyle;rounded=0;orthogonalLoop=1;jettySize=auto;html=1;entryX=0.5;entryY=0;entryDx=0;entryDy=0;endArrow=classic;endFill=1;" edge="1" parent="WIyWlLk6GJQsqaUBKTNV-1" source="QNVyYZ68Ig6UdcTOOayE-169" target="QNVyYZ68Ig6UdcTOOayE-184">
          <mxGeometry relative="1" as="geometry">
            <mxPoint x="139" y="610" as="sourcePoint" />
            <mxPoint x="138.5" y="720.0000000000002" as="targetPoint" />
          </mxGeometry>
        </mxCell>
        <mxCell id="QNVyYZ68Ig6UdcTOOayE-197" value="0..n" style="edgeLabel;html=1;align=center;verticalAlign=middle;resizable=0;points=[];" vertex="1" connectable="0" parent="QNVyYZ68Ig6UdcTOOayE-196">
          <mxGeometry x="-0.6667" y="3" relative="1" as="geometry">
            <mxPoint x="-3" as="offset" />
          </mxGeometry>
        </mxCell>
        <mxCell id="QNVyYZ68Ig6UdcTOOayE-202" value="1..1" style="edgeLabel;html=1;align=center;verticalAlign=middle;resizable=0;points=[];" vertex="1" connectable="0" parent="QNVyYZ68Ig6UdcTOOayE-196">
          <mxGeometry x="0.9079" y="1" relative="1" as="geometry">
            <mxPoint y="-18" as="offset" />
          </mxGeometry>
        </mxCell>
        <mxCell id="QNVyYZ68Ig6UdcTOOayE-209" style="edgeStyle=orthogonalEdgeStyle;rounded=0;orthogonalLoop=1;jettySize=auto;html=1;entryX=0.5;entryY=0;entryDx=0;entryDy=0;" edge="1" parent="WIyWlLk6GJQsqaUBKTNV-1" source="QNVyYZ68Ig6UdcTOOayE-203" target="QNVyYZ68Ig6UdcTOOayE-169">
          <mxGeometry relative="1" as="geometry" />
        </mxCell>
        <mxCell id="QNVyYZ68Ig6UdcTOOayE-210" value="1..1" style="edgeLabel;html=1;align=center;verticalAlign=middle;resizable=0;points=[];" vertex="1" connectable="0" parent="QNVyYZ68Ig6UdcTOOayE-209">
          <mxGeometry x="-0.8182" y="2" relative="1" as="geometry">
            <mxPoint as="offset" />
          </mxGeometry>
        </mxCell>
        <mxCell id="QNVyYZ68Ig6UdcTOOayE-211" value="0..1" style="edgeLabel;html=1;align=center;verticalAlign=middle;resizable=0;points=[];" vertex="1" connectable="0" parent="QNVyYZ68Ig6UdcTOOayE-209">
          <mxGeometry x="0.6667" y="1" relative="1" as="geometry">
            <mxPoint as="offset" />
          </mxGeometry>
        </mxCell>
        <mxCell id="QNVyYZ68Ig6UdcTOOayE-203" value="Amamentacao" style="swimlane;fontStyle=0;align=center;verticalAlign=top;childLayout=stackLayout;horizontal=1;startSize=26;horizontalStack=0;resizeParent=1;resizeLast=0;collapsible=1;marginBottom=0;rounded=0;shadow=0;strokeWidth=1;" vertex="1" parent="WIyWlLk6GJQsqaUBKTNV-1">
          <mxGeometry x="40" y="170" width="197" height="140" as="geometry">
            <mxRectangle x="550" y="140" width="160" height="26" as="alternateBounds" />
          </mxGeometry>
        </mxCell>
        <mxCell id="QNVyYZ68Ig6UdcTOOayE-204" value="&lt;&lt;PK&gt;&gt; -id: Long   " style="text;align=left;verticalAlign=top;spacingLeft=4;spacingRight=4;overflow=hidden;rotatable=0;points=[[0,0.5],[1,0.5]];portConstraint=eastwest;" vertex="1" parent="QNVyYZ68Ig6UdcTOOayE-203">
          <mxGeometry y="26" width="197" height="26" as="geometry" />
        </mxCell>
        <mxCell id="QNVyYZ68Ig6UdcTOOayE-205" value="-inicioAmamentacao: LocalDate" style="text;align=left;verticalAlign=top;spacingLeft=4;spacingRight=4;overflow=hidden;rotatable=0;points=[[0,0.5],[1,0.5]];portConstraint=eastwest;rounded=0;shadow=0;html=0;" vertex="1" parent="QNVyYZ68Ig6UdcTOOayE-203">
          <mxGeometry y="52" width="197" height="26" as="geometry" />
        </mxCell>
        <mxCell id="QNVyYZ68Ig6UdcTOOayE-208" value="-duracaoAmamentacao: Integer" style="text;align=left;verticalAlign=top;spacingLeft=4;spacingRight=4;overflow=hidden;rotatable=0;points=[[0,0.5],[1,0.5]];portConstraint=eastwest;rounded=0;shadow=0;html=0;" vertex="1" parent="QNVyYZ68Ig6UdcTOOayE-203">
          <mxGeometry y="78" width="197" height="26" as="geometry" />
        </mxCell>
        <mxCell id="QNVyYZ68Ig6UdcTOOayE-206" value="" style="line;strokeWidth=1;fillColor=none;align=left;verticalAlign=middle;spacingTop=-1;spacingLeft=3;spacingRight=3;rotatable=0;labelPosition=right;points=[];portConstraint=eastwest;strokeColor=inherit;" vertex="1" parent="QNVyYZ68Ig6UdcTOOayE-203">
          <mxGeometry y="104" width="197" height="8" as="geometry" />
        </mxCell>
        <mxCell id="QNVyYZ68Ig6UdcTOOayE-207" value="&amp;lt;&amp;lt;FK&amp;gt;&amp;gt; parto_id&lt;span style=&quot;background-color: initial;&quot;&gt;: Long&lt;/span&gt;" style="text;strokeColor=none;fillColor=none;align=left;verticalAlign=top;spacingLeft=4;spacingRight=4;overflow=hidden;rotatable=0;points=[[0,0.5],[1,0.5]];portConstraint=eastwest;whiteSpace=wrap;html=1;" vertex="1" parent="QNVyYZ68Ig6UdcTOOayE-203">
          <mxGeometry y="112" width="197" height="26" as="geometry" />
        </mxCell>
      </root>
    </mxGraphModel>
  </diagram>
</mxfile>
